<?xml version="1.0" encoding="utf-8"?>
<!-- Generator: Adobe Illustrator 27.0.0, SVG Export Plug-In . SVG Version: 6.00 Build 0)  -->
<svg version="1.1" id="Layer_1" xmlns="http://www.w3.org/2000/svg" xmlns:xlink="http://www.w3.org/1999/xlink" x="0px" y="0px"
	 viewBox="0 0 1080 1080" style="enable-background:new 0 0 1080 1080;" xml:space="preserve">
<g>
	<rect x="598.65" y="-579.05" transform="matrix(0.866 -0.5 0.5 0.866 293.0475 354.5642)" width="419" height="419"/>
</g>
<g>
	<rect x="180.36" y="-337.55" transform="matrix(0.866 -0.5 0.5 0.866 116.257 177.774)" width="419" height="419"/>
</g>
<g>
	<rect x="421.86" y="80.74" transform="matrix(0.866 -0.5 0.5 0.866 -60.5333 354.5644)" width="419" height="419"/>
</g>
<g>
	<rect x="840.15" y="-160.76" transform="matrix(0.866 -0.5 0.5 0.866 116.2572 531.3547)" width="419" height="419"/>
</g>
<g>
	<rect x="1082.65" y="259.26" transform="matrix(0.866 -0.5 0.5 0.866 -61.2652 708.8772)" width="419" height="419"/>
</g>
<g>
	<rect x="664.36" y="500.76" transform="matrix(0.866 -0.5 0.5 0.866 -238.0556 532.0869)" width="419" height="419"/>
</g>
<g>
	<rect x="905.86" y="919.05" transform="matrix(0.866 -0.5 0.5 0.866 -414.8459 708.8774)" width="419" height="419"/>
</g>
<g>
	<rect x="1324.15" y="677.55" transform="matrix(0.866 -0.5 0.5 0.866 -238.0555 885.6677)" width="419" height="419"/>
</g>
<g>
	<rect x="-244.86" y="-92.05" transform="matrix(0.866 -0.5 0.5 0.866 -63.4617 -1.9445)" width="419" height="419"/>
</g>
<g>
	<rect x="-663.15" y="149.45" transform="matrix(0.866 -0.5 0.5 0.866 -240.2522 -178.7348)" width="419" height="419"/>
</g>
<g>
	<rect x="-421.65" y="567.74" transform="matrix(0.866 -0.5 0.5 0.866 -417.0424 -1.9444)" width="419" height="419"/>
</g>
<g>
	<rect x="-3.36" y="326.24" transform="matrix(0.866 -0.5 0.5 0.866 -240.252 174.8459)" width="419" height="419"/>
</g>
<g>
	<rect x="239.14" y="746.26" transform="matrix(0.866 -0.5 0.5 0.866 -417.7743 352.3684)" width="419" height="419"/>
</g>
<g>
	<rect x="-179.15" y="987.76" transform="matrix(0.866 -0.5 0.5 0.866 -594.5648 175.5781)" width="419" height="419"/>
</g>
<g>
	<rect x="62.35" y="1406.05" transform="matrix(0.866 -0.5 0.5 0.866 -771.355 352.3686)" width="419" height="419"/>
</g>
<g>
	<rect x="480.64" y="1164.55" transform="matrix(0.866 -0.5 0.5 0.866 -594.5646 529.1589)" width="419" height="419"/>
</g>
</svg>
